<?xml version="1.0" encoding="UTF-8"?>
<svg version="1.1" xmlns="http://www.w3.org/2000/svg" width="512" height="512">
<path d="M0 0 C168.96 0 337.92 0 512 0 C512 168.96 512 337.92 512 512 C343.04 512 174.08 512 0 512 C0 343.04 0 174.08 0 0 Z " fill="#1866C0" transform="translate(0,0)"/>
<path d="M0 0 C168.96 0 337.92 0 512 0 C512 168.96 512 337.92 512 512 C343.04 512 174.08 512 0 512 C0 343.04 0 174.08 0 0 Z M244.625 11.0625 C243.12492737 11.99027204 241.62353705 12.91591573 240.12109375 13.83984375 C238.89688721 14.60143799 238.89688721 14.60143799 237.64794922 15.37841797 C232.72072193 18.39581089 227.69824915 21.24926571 222.6875 24.125 C221.58825195 24.75857422 220.48900391 25.39214844 219.35644531 26.04492188 C210.61797804 31.08064878 201.8589018 36.07988794 193.0977478 41.07598877 C185.03901259 45.67302225 177.00663618 50.31276504 169 55 C159.22497235 60.72248449 149.40213044 66.3584344 139.5625 71.96875 C131.69462595 76.45555737 123.84174598 80.96764758 116 85.5 C107.56484004 90.37533232 99.11491788 95.2239162 90.65130615 100.04962158 C81.03484749 105.53308141 71.43715852 111.047199 61.875 116.625 C60.92222168 117.1806665 59.96944336 117.73633301 58.98779297 118.30883789 C57.1954375 119.35674267 55.40482508 120.40763611 53.61621094 121.46191406 C51.80727804 122.52539645 49.9923987 123.57880517 48.17285156 124.62402344 C47.27276367 125.14770508 46.37267578 125.67138672 45.4453125 126.2109375 C44.63852051 126.6754834 43.83172852 127.1400293 43.00048828 127.61865234 C40.73025922 129.00432187 40.73025922 129.00432187 39 132 C38.69795524 134.00350892 38.69795524 134.00350892 38.73993778 136.22828484 C38.73287219 137.09505659 38.7258066 137.96182834 38.7185269 138.85486591 C38.72094198 139.80767196 38.72335707 140.76047802 38.72584534 141.74215698 C38.71799032 143.25979163 38.71799032 143.25979163 38.70997661 144.80808556 C38.69491804 148.21438165 38.69427018 151.62052831 38.69360352 155.02685547 C38.68598601 157.46250667 38.67755922 159.89815545 38.66838074 162.33380127 C38.64638939 168.96184973 38.6376092 175.58986263 38.63255429 182.2179389 C38.62929865 186.3556564 38.62277701 190.49336458 38.6155529 194.63107681 C38.59598631 206.08501066 38.57958224 217.53893585 38.57667637 228.9928875 C38.5764888 229.72599191 38.57630123 230.45909633 38.57610798 231.21441603 C38.57574172 232.70062391 38.57537802 234.18683178 38.57501686 235.67303966 C38.57483405 236.41080474 38.57465124 237.14856981 38.57446289 237.90869141 C38.57428234 238.64735581 38.57410179 239.38602022 38.57391577 240.1470684 C38.57037314 252.11958754 38.54334555 264.09192694 38.505965 276.06438373 C38.46790278 288.35339736 38.44851905 300.64232175 38.44821686 312.93139565 C38.44763184 319.83250584 38.43911158 326.73340157 38.41021919 333.63445663 C38.3831762 340.12365699 38.38178272 346.6125441 38.39787483 353.10178375 C38.39969654 355.48628031 38.39293404 357.87080082 38.37705612 360.25524521 C38.35673007 363.50529834 38.36706915 366.75384354 38.38526917 370.00387573 C38.3720692 370.95222034 38.35886923 371.90056495 38.34526926 372.87764728 C38.40347358 377.41380379 38.49151059 379.35506129 41.37956142 383.01809883 C43.94363362 384.95736874 46.46229844 386.66168721 49.26171875 388.2421875 C50.28458984 388.82548828 51.30746094 389.40878906 52.36132812 390.00976562 C53.45896484 390.62529297 54.55660156 391.24082031 55.6875 391.875 C56.85009654 392.53494982 58.01219707 393.19577411 59.17382812 393.85742188 C61.58452347 395.22962386 63.99729692 396.59806082 66.41162109 397.96386719 C71.96126118 401.10749893 77.47884295 404.30670716 83 407.5 C85.16651739 408.7502587 87.33318454 410.00025794 89.5 411.25 C93.83333333 413.75 98.16666667 416.25 102.5 418.75 C103.57266113 419.36883057 104.64532227 419.98766113 105.75048828 420.62524414 C107.91557071 421.87435518 110.08060982 423.12354129 112.24560547 424.37280273 C117.68615706 427.51202309 123.12747216 430.64990563 128.5703125 433.78515625 C140.0544882 440.40222892 151.52196894 447.04633977 162.96582031 453.73291016 C173.52620282 459.89919054 184.12126766 466.0049595 194.71777344 472.10888672 C201.21336316 475.85143641 207.70606042 479.59900243 214.19897461 483.34619141 C219.28625032 486.28182759 224.37426104 489.21616612 229.4649353 492.14590454 C231.87543748 493.53328095 234.28551376 494.92139624 236.69555664 496.30957031 C238.40143968 497.29173815 240.10793986 498.27283385 241.81445312 499.25390625 C242.84376953 499.846875 243.87308594 500.43984375 244.93359375 501.05078125 C246.2956897 501.83449097 246.2956897 501.83449097 247.68530273 502.6340332 C249.49126201 503.69977966 251.25521129 504.83680752 253 506 C257.68251371 506.48772845 260.35780358 505.63598134 264.359375 503.24609375 C265.88884766 502.34697266 265.88884766 502.34697266 267.44921875 501.4296875 C268.53847656 500.77226562 269.62773437 500.11484375 270.75 499.4375 C271.90673576 498.75252583 273.06430424 498.06895615 274.22265625 497.38671875 C276.62761083 495.96879658 279.02887559 494.54490821 281.42773438 493.11669922 C286.91885488 489.85423366 292.46197752 486.68193767 298 483.5 C300.16429578 482.25170646 302.32835753 481.00300707 304.4921875 479.75390625 C308.85065388 477.23930564 313.21012191 474.72645339 317.5703125 472.21484375 C328.06232094 466.16944841 338.54481676 460.10889781 349 454 C360.54729516 447.25298806 372.12902027 440.56660682 383.71777344 433.89111328 C389.14659942 430.76319852 394.57319281 427.63141552 400 424.5 C402.16665583 423.24998121 404.3333225 421.99998122 406.5 420.75 C407.5725 420.13125 408.645 419.5125 409.75 418.875 C419.5 413.25 419.5 413.25 422.75439453 411.37280273 C424.90680362 410.13080408 427.0588262 408.88813534 429.21044922 407.64477539 C434.24522538 404.73639605 439.28339178 401.83452627 444.33599854 398.95724487 C446.11819143 397.94192342 447.89911912 396.92441725 449.6796875 395.90625 C451.9089786 394.63236937 454.14060369 393.36256089 456.375 392.09765625 C466.50365706 386.98244134 466.50365706 386.98244134 474 379 C474.09765868 377.63949764 474.13456123 376.27437316 474.1398077 374.91038036 C474.14549894 374.04908305 474.15119018 373.18778574 474.15705389 372.30038851 C474.1588237 370.87264659 474.1588237 370.87264659 474.16062927 369.4160614 C474.16571709 368.40924295 474.17080491 367.40242449 474.17604691 366.36509639 C474.19182424 362.96955462 474.2003103 359.57403421 474.20874023 356.1784668 C474.21827429 353.75281639 474.22816525 351.32716737 474.23838806 348.90151978 C474.26710614 341.60676467 474.28686032 334.31200335 474.30378041 327.01721379 C474.30857451 324.95748617 474.31355793 322.89775907 474.31858563 320.83803201 C474.34955362 308.05216361 474.37624373 295.26629071 474.39300442 282.48039532 C474.39695402 279.51826151 474.40095701 276.55612778 474.4050293 273.59399414 C474.40654184 272.4896352 474.40654184 272.4896352 474.40808494 271.36296598 C474.42509725 259.43239357 474.46621222 247.50202838 474.51705229 235.57155719 C474.56879908 223.32778597 474.59794268 211.0841214 474.6052013 198.84024173 C474.60986709 191.96364952 474.62465469 185.08739676 474.6649456 178.2109127 C474.70279119 171.74387165 474.71025842 165.27725063 474.69693947 158.81010818 C474.6969936 156.4336611 474.70736474 154.05718902 474.7286911 151.68083763 C474.75621346 148.44147975 474.74693385 145.20426203 474.72825623 141.96488953 C474.74505115 141.01975374 474.76184608 140.07461796 474.77914995 139.1008417 C474.78419363 134.3971108 474.78419363 134.3971108 472.70892918 130.33672106 C470.94472338 128.77084072 470.94472338 128.77084072 468 127 C467.12375977 126.43684082 466.24751953 125.87368164 465.34472656 125.29345703 C464.45237305 124.78669434 463.56001953 124.27993164 462.640625 123.7578125 C461.11115234 122.88286133 461.11115234 122.88286133 459.55078125 121.99023438 C458.46152344 121.37470703 457.37226563 120.75917969 456.25 120.125 C454.49993101 119.12594487 452.74986705 118.12688079 451.00012207 117.1272583 C449.19183576 116.09511879 447.38215381 115.06546032 445.57226562 114.03613281 C440.03343728 110.88302494 434.51806519 107.68925178 429 104.5 C426.83082672 103.24852881 424.66155562 101.99722716 422.4921875 100.74609375 C418.18398349 98.26069098 413.87677211 95.77358023 409.5703125 93.28515625 C398.39550898 86.82980858 387.20845697 80.39670656 376 74 C363.71758711 66.99038295 351.46242205 59.9342758 339.21777344 52.85888672 C334.89752357 50.36310656 330.57577013 47.86993703 326.25390625 45.37695312 C323.00503504 43.50290437 319.75642368 41.62840572 316.5078125 39.75390625 C312.14934612 37.23930564 307.78987809 34.72645339 303.4296875 32.21484375 C302.3454248 31.589729 301.26116211 30.96461426 300.14404297 30.32055664 C297.98022141 29.07413725 295.81519784 27.82980203 293.64892578 26.58764648 C288.16372166 23.43555146 282.71603246 20.23572289 277.3125 16.9453125 C276.2311377 16.29377197 275.14977539 15.64223145 274.03564453 14.97094727 C271.98609039 13.73339399 269.9447761 12.48204949 267.91357422 11.21459961 C259.06927771 5.90292546 253.60542958 5.21483066 244.625 11.0625 Z " fill="#FEFEFE" transform="translate(0,0)"/>
<path d="M0 0 C3.88461437 1.55384575 7.17185557 3.13764688 10.76953125 5.203125 C11.89327148 5.84652832 13.01701172 6.48993164 14.17480469 7.15283203 C15.38744947 7.85174979 16.60001254 8.55080934 17.8125 9.25 C19.07313855 9.97397607 20.33388216 10.69776921 21.59472656 11.42138672 C43.2589088 23.86782384 43.2589088 23.86782384 47.78952026 26.72845459 C52.91226467 29.88739002 57.50670558 32.29105048 63.34472656 33.82226562 C70.54785227 36.08177551 77.33745591 39.0144297 81 46 C85.74942773 61.7564523 83.34258174 80.36712342 82.64794922 96.56243896 C82.40114055 102.92254768 82.29255963 109.28490739 82.171875 115.6484375 C81.91547784 128.10495077 81.50667483 140.55132871 81 153 C80.42707529 153.31432102 79.85415058 153.62864204 79.26386452 153.95248795 C76.63992312 155.39250776 74.01649135 156.83345361 71.39306641 158.27441406 C70.49185562 158.76881989 69.59064484 159.26322571 68.66212463 159.77261353 C62.17439379 163.3373008 55.7494285 166.98601262 49.375 170.75 C47.36235559 171.93163098 45.34931943 173.11259488 43.3359375 174.29296875 C42.31081055 174.89415527 41.28568359 175.4953418 40.22949219 176.11474609 C36.81883978 178.1057544 33.39974784 180.08143257 29.9765625 182.05078125 C29.392164 182.3870755 28.8077655 182.72336975 28.20565796 183.06985474 C25.38092374 184.69472789 22.5550599 186.31760519 19.72802734 187.93847656 C14.60181423 190.88594827 9.53548579 193.85869278 4.62109375 197.15014648 C3 198 3 198 0 198 C0 132.66 0 67.32 0 0 Z " fill="#FDFDFE" transform="translate(61,157)"/>
<path d="M0 0 C0 30.69 0 61.38 0 93 C-13.86 100.92 -13.86 100.92 -28 109 C-42.85690411 117.54972784 -57.69223394 126.13352651 -72.4921875 134.78125 C-73.38647461 135.29816406 -74.28076172 135.81507813 -75.20214844 136.34765625 C-77.20472087 137.5303273 -79.18500844 138.75105651 -81.14941406 139.99609375 C-82.19581055 140.64707031 -83.24220703 141.29804688 -84.3203125 141.96875 C-85.26406738 142.57138672 -86.20782227 143.17402344 -87.18017578 143.79492188 C-90.68251992 145.29168124 -92.37196114 145.04821361 -96 144 C-98.43994141 142.85522461 -98.43994141 142.85522461 -100.8515625 141.40234375 C-101.77066406 140.85642578 -102.68976563 140.31050781 -103.63671875 139.74804688 C-105.11591797 138.85182617 -105.11591797 138.85182617 -106.625 137.9375 C-108.78304329 136.65358399 -110.94193216 135.37108843 -113.1015625 134.08984375 C-114.22981445 133.41808105 -115.35806641 132.74631836 -116.52050781 132.05419922 C-121.72247181 128.9712356 -126.98169973 125.9885472 -132.23883057 123.00100708 C-145.55159064 115.43434891 -158.79033892 107.74536485 -172 100 C-169.60030318 97.34434213 -167.03555811 95.72001447 -163.93359375 93.953125 C-162.38937744 93.06838501 -162.38937744 93.06838501 -160.81396484 92.16577148 C-159.69973145 91.53356689 -158.58549805 90.9013623 -157.4375 90.25 C-156.2674468 89.58132488 -155.0976925 88.91212649 -153.92822266 88.24243164 C-151.49645633 86.85046746 -149.06341756 85.46076798 -146.62939453 84.07275391 C-141.03377343 80.87980605 -135.45465587 77.65823916 -129.875 74.4375 C-128.79919678 73.81713867 -127.72339355 73.19677734 -126.61499023 72.55761719 C-119.3974883 68.39302688 -112.19470984 64.20382371 -105 60 C-91.26944812 51.97732489 -77.48922034 44.04141741 -63.70898438 36.10449219 C-51.89719803 29.30025757 -40.09084218 22.48701077 -28.3125 15.625 C-27.32282227 15.04854736 -26.33314453 14.47209473 -25.31347656 13.87817383 C-20.93705907 11.32280358 -16.57148836 8.75308229 -12.23828125 6.125 C-11.53340576 5.69751465 -10.82853027 5.2700293 -10.10229492 4.82958984 C-8.82763784 4.05305471 -7.55545859 3.27243035 -6.28637695 2.48681641 C-2.21600298 0 -2.21600298 0 0 0 Z " fill="#FDFDFE" transform="translate(245,38)"/>
<path d="M0 0 C1.91655679 1.025151 3.8150553 2.08443169 5.69921875 3.16796875 C6.81248535 3.80613525 7.92575195 4.44430176 9.07275391 5.10180664 C10.27771682 5.79695534 11.4826309 6.4921887 12.6875 7.1875 C13.94434799 7.90968618 15.20134912 8.6316059 16.45849609 9.35327148 C19.68637148 11.20743067 22.91189349 13.06563953 26.13653564 14.92541504 C28.99525204 16.57392183 31.85518454 18.22031688 34.71484375 19.8671875 C38.97824216 22.32392446 43.23975721 24.78388905 47.5 27.24609375 C51.43990086 29.52294804 55.38186203 31.79613517 59.32693481 34.06401062 C61.10997818 35.08902072 62.89267977 36.11462285 64.67529297 37.14038086 C66.90803902 38.4248814 69.14139769 39.70831792 71.37548828 40.99047852 C72.38853027 41.57369873 73.40157227 42.15691895 74.4453125 42.7578125 C75.32719238 43.2645752 76.20907227 43.77133789 77.11767578 44.29345703 C78.06884277 44.85661621 79.02000977 45.41977539 80 46 C80.65985083 46.31136933 81.31970165 46.62273867 81.99954796 46.94354343 C87.55443772 49.82008826 87.55443772 49.82008826 88.72667122 52.92432785 C88.98667462 55.32106876 88.99048605 57.60331159 88.90820312 60.01293945 C88.90937134 60.91099808 88.91053955 61.8090567 88.91174316 62.73432922 C88.90618002 65.69556687 88.8440156 68.65274977 88.78125 71.61328125 C88.76632508 73.66877543 88.75493925 75.7242981 88.74694824 77.77983093 C88.71643409 83.18436558 88.63787638 88.58717419 88.54931641 93.99102783 C88.46740988 99.50745289 88.43092644 105.02415749 88.390625 110.54101562 C88.30488222 121.36143457 88.16838311 132.18057364 88 143 C83.90675245 141.67899257 80.35593525 140.22609607 76.640625 138.05078125 C75.62081543 137.45773193 74.60100586 136.86468262 73.55029297 136.25366211 C72.46119629 135.61307861 71.37209961 134.97249512 70.25 134.3125 C69.0942512 133.63817285 67.93815734 132.96443682 66.78173828 132.29125977 C64.38019452 130.89270204 61.98015196 129.49161706 59.58105469 128.08886719 C54.0276813 124.84524089 48.4493797 121.64483323 42.875 118.4375 C33.57690434 113.07765885 24.30062777 107.68141718 15.03417969 102.26708984 C3.38340815 95.46412377 -8.30903744 88.73357814 -20 82 C-33.9386577 73.9718295 -47.86472554 65.92389759 -61.75244141 57.80786133 C-69.14218491 53.49207622 -76.5553455 49.22038512 -84 45 C-84 44.34 -84 43.68 -84 43 C-83.27111572 42.59797363 -82.54223145 42.19594727 -81.79125977 41.78173828 C-64.04994676 32.00866715 -64.04994676 32.00866715 -46.52172852 21.86108398 C-40.45628614 18.25627033 -34.35316395 14.71784242 -28.2414856 11.19213867 C-26.55050602 10.21663622 -24.8600832 9.24016884 -23.16967773 8.26367188 C-21.07891241 7.05810511 -18.98472318 5.8584516 -16.88671875 4.66552734 C-15.03737514 3.59852615 -13.20446477 2.50219413 -11.39453125 1.36962891 C-10.61464844 0.89315918 -9.83476562 0.41668945 -9.03125 -0.07421875 C-8.36673828 -0.49662842 -7.70222656 -0.91903809 -7.01757812 -1.35424805 C-4.06953501 -2.29780735 -2.72155682 -1.37774508 0 0 Z " fill="#FDFDFE" transform="translate(157,331)"/>
<path d="M0 0 C0.81041748 0.46615723 1.62083496 0.93231445 2.45581055 1.41259766 C3.82056519 2.1420459 3.82056519 2.1420459 5.21289062 2.88623047 C6.70405396 3.7423291 6.70405396 3.7423291 8.2253418 4.61572266 C9.34908203 5.25912598 10.47282227 5.9025293 11.63061523 6.56542969 C12.84326002 7.26434745 14.05582309 7.963407 15.26831055 8.66259766 C16.52894909 9.38657373 17.78969271 10.11036687 19.05053711 10.83398438 C29.86849577 17.0490836 40.64837074 23.32941862 51.41479492 29.63330078 C56.92500882 32.85732446 62.4408229 36.07174926 67.95581055 39.28759766 C69.98708311 40.47245481 72.01833531 41.65734687 74.04956055 42.84228516 C74.90227539 43.33970215 75.75499023 43.83711914 76.63354492 44.34960938 C77.53556641 44.87578857 77.53556641 44.87578857 78.45581055 45.41259766 C76.19367581 47.88750072 73.90327052 49.43755622 70.9753418 51.05712891 C70.07106445 51.56179688 69.16678711 52.06646484 68.23510742 52.58642578 C67.25606445 53.1271875 66.27702148 53.66794922 65.26831055 54.22509766 C63.16983204 55.39680332 61.07220154 56.57002879 58.9753418 57.74462891 C57.35426514 58.65269287 57.35426514 58.65269287 55.70043945 59.57910156 C50.58671247 62.46879981 45.52120551 65.43924118 40.45581055 68.41259766 C31.71787583 73.53420076 22.92876168 78.55434469 14.1003418 83.51806641 C7.17974776 87.41739156 0.30913118 91.39635672 -6.54418945 95.41259766 C-14.34006066 99.98120006 -22.16793261 104.48401252 -30.04418945 108.91259766 C-37.85413078 113.30556474 -45.62222182 117.76304185 -53.35668945 122.28759766 C-54.81582764 123.1405542 -54.81582764 123.1405542 -56.30444336 124.01074219 C-58.31522144 125.18629928 -60.32596292 126.361919 -62.33666992 127.53759766 C-63.39515137 128.15634766 -64.45363281 128.77509766 -65.54418945 129.41259766 C-66.12130676 129.75000977 -66.69842407 130.08742188 -67.29302979 130.43505859 C-70.91330259 132.55082945 -74.53639321 134.66165161 -78.16293335 136.7666626 C-79.8918324 137.77169464 -81.61805897 138.78131947 -83.34423828 139.79101562 C-84.90887817 140.69811279 -84.90887817 140.69811279 -86.50512695 141.62353516 C-87.43115723 142.16284668 -88.3571875 142.7021582 -89.3112793 143.2578125 C-91.54418945 144.41259766 -91.54418945 144.41259766 -93.54418945 144.41259766 C-93.54418945 113.72259766 -93.54418945 83.03259766 -93.54418945 51.41259766 C-81.16918945 44.48259766 -81.16918945 44.48259766 -68.54418945 37.41259766 C-59.67259021 32.25133051 -59.67259021 32.25133051 -50.8137207 27.06884766 C-40.56713196 21.07596196 -30.25761374 15.18611885 -19.91821289 9.35498047 C-17.50634037 7.96649583 -15.1357576 6.55235997 -12.77172852 5.08740234 C-12.1450528 4.70740082 -11.51837708 4.32739929 -10.87271118 3.93588257 C-9.11608301 2.86893756 -7.37007978 1.78455677 -5.62475586 0.69921875 C-2.54418945 -0.58740234 -2.54418945 -0.58740234 0 0 Z " fill="#FDFEFE" transform="translate(361.544189453125,329.58740234375)"/>
<path d="M0 0 C0 65.01 0 130.02 0 197 C-4.50372819 196.09925436 -6.77433552 195.20615657 -10.62890625 192.96484375 C-11.73242432 192.32828857 -12.83594238 191.6917334 -13.97290039 191.03588867 C-15.16947772 190.33650128 -16.36600973 189.63703633 -17.5625 188.9375 C-18.80873759 188.21581691 -20.0554086 187.49488179 -21.30249023 186.7746582 C-23.89993587 185.27384146 -26.49547428 183.76979932 -29.08984375 182.26367188 C-32.85296022 180.08175566 -36.62724136 177.91987655 -40.40625 175.765625 C-41.31116432 175.24972557 -41.31116432 175.24972557 -42.23435974 174.72340393 C-43.43253845 174.0405266 -44.6307747 173.35775023 -45.82907104 172.67507935 C-53.81475515 168.1254284 -53.81475515 168.1254284 -57.09057617 166.15614319 C-59.90470743 164.52516429 -62.74062879 163.26258322 -65.75816345 162.05273438 C-78.35180289 156.59714429 -78.35180289 156.59714429 -81.10115242 150.59676552 C-82.87187105 143.44268142 -82.51031244 136.11377459 -82.3125 128.80078125 C-82.31005847 126.43669935 -82.31415307 124.07260255 -82.32446289 121.70854187 C-82.32539624 116.76781634 -82.26110846 111.83367499 -82.14746094 106.89428711 C-82.00535187 100.57338984 -82.00569886 94.2623312 -82.05213928 87.94032001 C-82.07583916 83.06405832 -82.03479563 78.19003555 -81.97323608 73.31416893 C-81.94954267 70.98475416 -81.9433454 68.65509127 -81.95523071 66.32558632 C-81.98112435 48.69212676 -81.98112435 48.69212676 -78.73000145 44.27421379 C-75.27278012 41.14034169 -71.34967928 39.62637489 -67 38 C-64.96571538 36.85642005 -62.94782206 35.68256332 -60.95703125 34.46484375 C-58.90996214 33.28713455 -56.86175048 32.11140945 -54.8125 30.9375 C-52.54293099 29.63287818 -50.27340092 28.32818863 -48.00390625 27.0234375 C-46.84001738 26.3551243 -45.6761176 25.6868301 -44.51220703 25.01855469 C-39.87244488 22.35338936 -35.23940664 19.67660796 -30.60595703 17.00048828 C-26.33576064 14.53454772 -22.06379737 12.07168011 -17.79150391 9.609375 C-16.03557631 8.59703682 -14.27999201 7.5841027 -12.52490234 6.5703125 C-10.49691304 5.39903887 -8.46750876 4.23026876 -6.4375 3.0625 C-4.85775391 2.15177734 -4.85775391 2.15177734 -3.24609375 1.22265625 C-1 0 -1 0 0 0 Z " fill="#FEFEFE" transform="translate(451,157)"/>
<path d="M0 0 C2.41147861 1.28167274 4.82245582 2.56427351 7.2331543 3.84741211 C8.25263783 4.38907139 8.25263783 4.38907139 9.29271698 4.94167328 C13.8656908 7.37694008 18.37327392 9.89028516 22.8125 12.5625 C30.02756725 16.85313964 37.28687598 21.0629177 44.5625 25.25 C53.05662691 30.14134147 61.53765644 35.05387345 70 40 C82.63739334 47.38421871 95.31675355 54.69490167 108 62 C157.50891098 90.51536979 157.50891098 90.51536979 171 99 C168.52079295 101.77339447 165.79477299 103.40788797 162.56640625 105.23046875 C161.45644287 105.86057861 160.34647949 106.49068848 159.20288086 107.13989258 C157.98943964 107.82246229 156.77597883 108.50499717 155.5625 109.1875 C154.3064269 109.89881183 153.05065351 110.61065312 151.79516602 111.32299805 C149.17874694 112.80693815 146.56104308 114.28857334 143.94238281 115.76855469 C138.35318393 118.92943074 132.77864358 122.11587155 127.20462036 125.30340576 C125.44492794 126.30825836 123.68350526 127.31001413 121.92163086 128.31103516 C116.65359383 131.31010395 111.41048699 134.33532884 106.23046875 137.484375 C105.35914307 138.00862061 104.48781738 138.53286621 103.59008789 139.07299805 C102.00373327 140.03153519 100.42530382 141.00337865 98.85717773 141.99145508 C95.67390413 143.90571346 93.71805075 144.99079422 89.953125 145.0390625 C86.21874954 143.72511558 82.97132949 141.88918441 79.625 139.8125 C78.10598625 138.89497604 76.58642317 137.9783611 75.06640625 137.0625 C73.84268311 136.32 73.84268311 136.32 72.59423828 135.5625 C67.94606542 132.76292289 63.25220836 130.04171885 58.5625 127.3125 C57.05115479 126.4306604 57.05115479 126.4306604 55.50927734 125.53100586 C50.14383145 122.40249418 44.77057577 119.28813306 39.38671875 116.19140625 C38.27804443 115.55356201 37.16937012 114.91571777 36.02709961 114.25854492 C33.94689771 113.06292862 31.86578597 111.8688928 29.78344727 110.67700195 C27.79425054 109.53402282 25.81804884 108.36812086 23.85569763 107.17964172 C20.98970998 105.49256838 18.06300298 104.10611126 15.02990723 102.74459839 C1.67761278 96.36585523 1.67761278 96.36585523 -1.12041473 90.75207138 C-2.7984099 84.41635842 -2.29922255 77.9650577 -1.953125 71.484375 C-1.91576005 69.41658288 -1.8873201 67.34861207 -1.86737061 65.28057861 C-1.79145602 59.87021754 -1.59552794 54.47082154 -1.37329102 49.0647583 C-1.16763513 43.53556744 -1.07713591 38.00457955 -0.9765625 32.47265625 C-0.76288797 21.64365178 -0.42220238 10.82274161 0 0 Z " fill="#FDFEFE" transform="translate(268,38)"/>
<path d="M0 0 C3.86349391 1.54539756 7.12420698 3.11206551 10.69921875 5.16796875 C11.81280762 5.80629639 12.92639648 6.44462402 14.07373047 7.10229492 C15.27838145 7.79725732 16.48296968 8.4923285 17.6875 9.1875 C18.94142546 9.9082088 20.19549673 10.62866396 21.44970703 11.34887695 C24.03353538 12.83346773 26.61614661 14.32014415 29.19775391 15.80859375 C32.74805424 17.85553267 36.30151411 19.89691227 39.85546875 21.9375 C42.02880633 23.18722093 44.20199022 24.43720917 46.375 25.6875 C47.32076904 26.23108154 48.26653809 26.77466309 49.2409668 27.3347168 C51.25614974 28.4970555 53.24261816 29.71007426 55.20361328 30.96166992 C58.24073738 32.77063555 61.25080791 33.70907461 64.63623047 34.7043457 C71.50856297 37.10560143 76.98778045 39.71188579 81 46 C85.25369701 59.52537687 83.14902679 75.60702701 82.51062012 89.54034424 C82.28424185 95.00225471 82.18481916 100.46637702 82.07421875 105.93164062 C81.83929043 116.62696769 81.46464467 127.31235853 81 138 C76.85427787 137.26414232 74.02940999 136.05568796 70.4140625 133.859375 C69.33036377 133.20759277 68.24666504 132.55581055 67.13012695 131.88427734 C66.55928375 131.53661316 65.98844055 131.18894897 65.40029907 130.83074951 C62.36605585 128.98359208 59.31711108 127.16097677 56.26953125 125.3359375 C55.65315292 124.9660672 55.0367746 124.5961969 54.40171814 124.21511841 C48.75986855 120.83726454 43.05014467 117.58731714 37.3125 114.375 C27.994807 109.15150705 18.75343981 103.80613899 9.53833008 98.40380859 C8.58079834 97.84258301 7.6232666 97.28135742 6.63671875 96.703125 C5.78811279 96.20458008 4.93950684 95.70603516 4.06518555 95.19238281 C2.7318985 94.42257859 1.37702662 93.68851331 0 93 C0 62.31 0 31.62 0 0 Z " fill="#FCFDFE" transform="translate(164,217)"/>
<path d="M0 0 C2.87060547 1.36010742 2.87060547 1.36010742 5.8671875 3.10546875 C7.54796387 4.07540771 7.54796387 4.07540771 9.26269531 5.06494141 C10.46691463 5.7722605 11.6710132 6.4797852 12.875 7.1875 C14.13072168 7.91665119 15.38691347 8.64499331 16.64355469 9.37255859 C19.83199464 11.2214385 23.01411557 13.08089846 26.19445801 14.94366455 C28.9049237 16.52942717 31.62053276 18.10630755 34.3359375 19.68359375 C39.21529021 22.52078798 44.08821504 25.36880397 48.95898438 28.22070312 C54.46919827 31.4447268 59.98501235 34.65915161 65.5 37.875 C67.53127256 39.05985715 69.56252476 40.24474922 71.59375 41.4296875 C72.44646484 41.92710449 73.29917969 42.42452148 74.17773438 42.93701172 C75.07975586 43.46319092 75.07975586 43.46319092 76 44 C73.09092634 47.15121025 70.20075071 49.22995518 66.46875 51.328125 C64.80839722 52.26857666 64.80839722 52.26857666 63.11450195 53.22802734 C61.90969046 53.90205843 60.70485587 54.57604824 59.5 55.25 C58.24984774 55.95584134 57.00009828 56.66239654 55.75073242 57.36962891 C53.14709512 58.84267821 50.54174212 60.31262177 47.93505859 61.78027344 C42.30776755 64.95117007 36.69858339 68.15371001 31.09082031 71.35897827 C29.32288335 72.3690676 27.55407401 73.37761582 25.78515625 74.38598633 C18.46446864 78.56602792 11.17400275 82.79265215 3.9699707 87.17138672 C-1.85165313 90.6611255 -1.85165313 90.6611255 -5 91 C-7.39648437 89.99047852 -7.39648437 89.99047852 -10.09375 88.37890625 C-11.10977295 87.78126465 -12.1257959 87.18362305 -13.17260742 86.56787109 C-14.27064697 85.90609863 -15.36868652 85.24432617 -16.5 84.5625 C-17.65842805 83.87700827 -18.81770603 83.19295107 -19.9777832 82.51025391 C-22.41695807 81.07411531 -24.85307497 79.63297379 -27.28759766 78.18896484 C-32.63559195 75.02578449 -38.03303104 71.94950317 -43.43218994 68.87475586 C-45.18449734 67.8767102 -46.93587163 66.87704529 -48.68701172 65.87695312 C-56.49060503 61.42277221 -64.30391272 56.9858866 -72.125 52.5625 C-73.09719482 52.01255371 -74.06938965 51.46260742 -75.07104492 50.89599609 C-75.95767822 50.39535645 -76.84431152 49.8947168 -77.7578125 49.37890625 C-78.5327002 48.9413501 -79.30758789 48.50379395 -80.10595703 48.05297852 C-81.3884493 47.33998688 -82.68755389 46.65622306 -84 46 C-84 45.34 -84 44.68 -84 44 C-83.2879541 43.59386475 -82.5759082 43.18772949 -81.84228516 42.76928711 C-68.79834451 35.32737791 -55.76096601 27.87444527 -42.75 20.375 C-41.6966748 19.77034912 -40.64334961 19.16569824 -39.55810547 18.54272461 C-34.08420243 15.39264833 -28.64729621 12.19388597 -23.25 8.9140625 C-22.15848633 8.25744629 -21.06697266 7.60083008 -19.94238281 6.92431641 C-17.86549692 5.67240339 -15.79660329 4.40710159 -13.73730469 3.12646484 C-12.80821289 2.56910645 -11.87912109 2.01174805 -10.921875 1.4375 C-9.70902832 0.69306641 -9.70902832 0.69306641 -8.47167969 -0.06640625 C-5.18791485 -1.30673781 -3.36571714 -0.93128023 0 0 Z " fill="#FDFDFE" transform="translate(260,152)"/>
<path d="M0 0 C0.30160855 11.85643046 0.53238921 23.71194472 0.67355824 35.57143402 C0.74132631 41.07895152 0.83317587 46.5838398 0.98071289 52.08984375 C1.12229036 57.40690262 1.19975475 62.72143889 1.23340416 68.04023743 C1.25737091 70.06594067 1.30418084 72.09151009 1.37449074 74.11613464 C1.88916449 89.55489015 1.88916449 89.55489015 -1.24121094 93.60647583 C-4.73042245 96.6661205 -8.71128957 98.28136926 -13 100 C-15.01964311 101.13691524 -17.02533616 102.29944924 -19.0078125 103.5 C-21.04604937 104.66810849 -23.08513841 105.83473107 -25.125 107 C-35.69148885 113.06448767 -46.19433931 119.22805581 -56.66455078 125.45703125 C-58.74395811 126.69411053 -60.82417158 127.92983601 -62.90527344 129.1640625 C-65.0671247 130.44657445 -67.22643132 131.73338115 -69.38378906 133.0234375 C-70.4662793 133.66539062 -71.54876953 134.30734375 -72.6640625 134.96875 C-73.64068848 135.55076172 -74.61731445 136.13277344 -75.62353516 136.73242188 C-78 138 -78 138 -80 138 C-80 107.31 -80 76.62 -80 45 C-71.42 40.05 -62.84 35.1 -54 30 C-45.07320996 24.79274382 -45.07320996 24.79274382 -36.1484375 19.58203125 C-29.31835668 15.59800338 -22.47332034 11.64006235 -15.625 7.6875 C-14.49449219 7.03458984 -13.36398437 6.38167969 -12.19921875 5.70898438 C-11.15636719 5.10763672 -10.11351562 4.50628906 -9.0390625 3.88671875 C-8.11303223 3.35264404 -7.18700195 2.81856934 -6.23291016 2.26831055 C-2.23946102 0 -2.23946102 0 0 0 Z " fill="#FDFEFE" transform="translate(348,217)"/>
</svg>
